# xmcd CD database file
#
# Track frame offsets:
#	150
#	34577
#	62514
#	87060
#	109118
#	130280
#	161480
#	179659
#	188891
#	204216
#	226922
#	246745
#	271833
#	290333
#
# Disc length: 4181 seconds
#
# Revision: 0
# Processed by: cddbd v1.5.2PL0 Copyright (c) Steve Scherf et al.
# Submitted via: CDex 1.51
#
DISCID=c010530e
DTITLE=Various Artist - Jazz from Castle Street Cafe
DYEAR=2007
DGENRE=Jazz
TTITLE0=01 Adrian Cohen Trio, "Be Bop"
TTITLE1=02 Jay Messer Quintet, "Chet"
TTITLE2=03 Ted Rosenthal Trio, "Sisters"
TTITLE3=04 Teri Roiger, "I Just Got Back in Town"
TTITLE4=05 Leo Russo Quartet, "Big Bear"
TTITLE5=06 Playscape Quintet, "23rd Street Cafe"
TTITLE6=07 Francesca Tanksley Trio, "Into The Light"
TTITLE7=08 Teresa Broadwell, "Travellin' All Alone"
TTITLE8=09 Ted Perry Trio, "Seven Valleys"
TTITLE9=10 Stephanie Nakasian "Pent-Up House"
TTITLE10=11 Lee Shaw Trio, "Sweet Baby"
TTITLE11=12 Armen Donelian Trio, "Seasons' Change"
TTITLE12=13 Advanced Phunk, "Wartbyrd Suite"
TTITLE13=14 Vikki True and Richard Downs, "You're Gonna Need Somebody on Your Bond"
EXTD=YEAR: 2007
EXTT0=
EXTT1=
EXTT2=
EXTT3=
EXTT4=
EXTT5=
EXTT6=
EXTT7=
EXTT8=
EXTT9=
EXTT10=
EXTT11=
EXTT12=
EXTT13=
PLAYORDER=
